<svg width="342" height="81" viewBox="0 0 342 81" fill="none" xmlns="http://www.w3.org/2000/svg">
<g clip-path="url(#clip0_1_2)">
<rect width="342" height="81" fill="white"/>
<path d="M22.108 66.8452C19.6884 66.8452 17.5009 66.3977 15.5455 65.5028C13.59 64.5914 12.0405 63.2739 10.897 61.5504C9.77012 59.8269 9.20668 57.714 9.20668 55.2116C9.20668 53.0573 9.62098 51.2841 10.4496 49.892C11.2782 48.5 12.3968 47.398 13.8054 46.5859C15.214 45.7739 16.7884 45.1607 18.5284 44.7464C20.2685 44.3321 22.0417 44.0173 23.848 43.8018C26.1349 43.5367 27.991 43.3213 29.4162 43.1555C30.8414 42.9732 31.8771 42.6832 32.5234 42.2855C33.1697 41.8878 33.4929 41.2415 33.4929 40.3466V40.1726C33.4929 38.0017 32.8797 36.3196 31.6534 35.1264C30.4437 33.9332 28.6373 33.3366 26.2344 33.3366C23.732 33.3366 21.7599 33.8918 20.3182 35.0021C18.893 36.0959 17.907 37.3139 17.3601 38.6562L10.375 37.0653C11.2036 34.7453 12.4134 32.8726 14.0043 31.4474C15.6117 30.0057 17.4595 28.9616 19.5476 28.3153C21.6357 27.6525 23.8314 27.321 26.1349 27.321C27.6596 27.321 29.2753 27.5033 30.9822 27.8679C32.7057 28.2159 34.3132 28.8622 35.8047 29.8068C37.3127 30.7514 38.5473 32.102 39.5085 33.8587C40.4697 35.5987 40.9503 37.8608 40.9503 40.6449V66H33.6918V60.7798H33.3935C32.9129 61.741 32.192 62.6856 31.2308 63.6136C30.2696 64.5417 29.035 65.3123 27.527 65.9254C26.0189 66.5386 24.2126 66.8452 22.108 66.8452ZM23.7237 60.8793C25.7786 60.8793 27.5353 60.4732 28.9936 59.6612C30.4685 58.8492 31.5871 57.7886 32.3494 56.4794C33.1283 55.1536 33.5178 53.7367 33.5178 52.2287V47.3068C33.2526 47.572 32.7389 47.8205 31.9766 48.0526C31.2308 48.268 30.3774 48.4586 29.4162 48.6243C28.455 48.7734 27.5187 48.9143 26.6072 49.0469C25.6958 49.1629 24.9335 49.2623 24.3203 49.3452C22.8786 49.5275 21.5611 49.834 20.3679 50.2649C19.1913 50.6958 18.2467 51.3172 17.5341 52.1293C16.8381 52.9247 16.4901 53.9853 16.4901 55.3111C16.4901 57.1506 17.1695 58.5426 18.5284 59.4872C19.8873 60.4152 21.6191 60.8793 23.7237 60.8793ZM50.85 80.3182V27.8182H58.1085V34.0078H58.7299C59.1608 33.2124 59.7823 32.2926 60.5943 31.2486C61.4063 30.2045 62.5332 29.2931 63.975 28.5142C65.4167 27.7188 67.3225 27.321 69.6923 27.321C72.7747 27.321 75.5256 28.0999 77.9451 29.6577C80.3646 31.2154 82.2621 33.4609 83.6376 36.3942C85.0297 39.3274 85.7257 42.8572 85.7257 46.9837C85.7257 51.1101 85.0379 54.6482 83.6625 57.598C82.287 60.5312 80.3978 62.7933 77.9949 64.3842C75.5919 65.9586 72.8493 66.7457 69.7669 66.7457C67.4468 66.7457 65.5493 66.3563 64.0744 65.5774C62.6161 64.7985 61.4726 63.8871 60.644 62.843C59.8154 61.799 59.1774 60.871 58.7299 60.0589H58.2825V80.3182H50.85ZM58.1333 46.9091C58.1333 49.5937 58.5228 51.947 59.3017 53.9688C60.0806 55.9905 61.2074 57.5732 62.6824 58.7166C64.1573 59.8435 65.9636 60.407 68.1014 60.407C70.322 60.407 72.1781 59.8187 73.6696 58.642C75.161 57.4489 76.2879 55.8331 77.0502 53.7947C77.8291 51.7564 78.2186 49.4612 78.2186 46.9091C78.2186 44.3902 77.8374 42.1281 77.0751 40.1229C76.3294 38.1177 75.2025 36.535 73.6944 35.375C72.2029 34.215 70.3386 33.6349 68.1014 33.6349C65.947 33.6349 64.1241 34.1901 62.6326 35.3004C61.1577 36.4107 60.0391 37.9602 59.2768 39.9489C58.5145 41.9375 58.1333 44.2576 58.1333 46.9091ZM94.0531 80.3182V27.8182H101.312V34.0078H101.933C102.364 33.2124 102.985 32.2926 103.797 31.2486C104.609 30.2045 105.736 29.2931 107.178 28.5142C108.62 27.7188 110.526 27.321 112.895 27.321C115.978 27.321 118.729 28.0999 121.148 29.6577C123.568 31.2154 125.465 33.4609 126.841 36.3942C128.233 39.3274 128.929 42.8572 128.929 46.9837C128.929 51.1101 128.241 54.6482 126.866 57.598C125.49 60.5312 123.601 62.7933 121.198 64.3842C118.795 65.9586 116.052 66.7457 112.97 66.7457C110.65 66.7457 108.752 66.3563 107.278 65.5774C105.819 64.7985 104.676 63.8871 103.847 62.843C103.019 61.799 102.381 60.871 101.933 60.0589H101.486V80.3182H94.0531ZM101.336 46.9091C101.336 49.5937 101.726 51.947 102.505 53.9688C103.284 55.9905 104.411 57.5732 105.885 58.7166C107.36 59.8435 109.167 60.407 111.305 60.407C113.525 60.407 115.381 59.8187 116.873 58.642C118.364 57.4489 119.491 55.8331 120.253 53.7947C121.032 51.7564 121.422 49.4612 121.422 46.9091C121.422 44.3902 121.041 42.1281 120.278 40.1229C119.532 38.1177 118.406 36.535 116.898 35.375C115.406 34.215 113.542 33.6349 111.305 33.6349C109.15 33.6349 107.327 34.1901 105.836 35.3004C104.361 36.4107 103.242 37.9602 102.48 39.9489C101.718 41.9375 101.336 44.2576 101.336 46.9091ZM148.368 66.8452C145.948 66.8452 143.761 66.3977 141.805 65.5028C139.85 64.5914 138.3 63.2739 137.157 61.5504C136.03 59.8269 135.466 57.714 135.466 55.2116C135.466 53.0573 135.881 51.2841 136.709 49.892C137.538 48.5 138.657 47.398 140.065 46.5859C141.474 45.7739 143.048 45.1607 144.788 44.7464C146.528 44.3321 148.301 44.0173 150.108 43.8018C152.395 43.5367 154.251 43.3213 155.676 43.1555C157.101 42.9732 158.137 42.6832 158.783 42.2855C159.43 41.8878 159.753 41.2415 159.753 40.3466V40.1726C159.753 38.0017 159.14 36.3196 157.913 35.1264C156.703 33.9332 154.897 33.3366 152.494 33.3366C149.992 33.3366 148.02 33.8918 146.578 35.0021C145.153 36.0959 144.167 37.3139 143.62 38.6562L136.635 37.0653C137.463 34.7453 138.673 32.8726 140.264 31.4474C141.872 30.0057 143.719 28.9616 145.807 28.3153C147.895 27.6525 150.091 27.321 152.395 27.321C153.919 27.321 155.535 27.5033 157.242 27.8679C158.965 28.2159 160.573 28.8622 162.064 29.8068C163.573 30.7514 164.807 32.102 165.768 33.8587C166.729 35.5987 167.21 37.8608 167.21 40.6449V66H159.952V60.7798H159.653C159.173 61.741 158.452 62.6856 157.491 63.6136C156.529 64.5417 155.295 65.3123 153.787 65.9254C152.279 66.5386 150.472 66.8452 148.368 66.8452ZM149.983 60.8793C152.038 60.8793 153.795 60.4732 155.253 59.6612C156.728 58.8492 157.847 57.7886 158.609 56.4794C159.388 55.1536 159.778 53.7367 159.778 52.2287V47.3068C159.512 47.572 158.999 47.8205 158.236 48.0526C157.491 48.268 156.637 48.4586 155.676 48.6243C154.715 48.7734 153.778 48.9143 152.867 49.0469C151.956 49.1629 151.193 49.2623 150.58 49.3452C149.138 49.5275 147.821 49.834 146.628 50.2649C145.451 50.6958 144.506 51.3172 143.794 52.1293C143.098 52.9247 142.75 53.9853 142.75 55.3111C142.75 57.1506 143.429 58.5426 144.788 59.4872C146.147 60.4152 147.879 60.8793 149.983 60.8793ZM177.11 66V27.8182H184.294V33.8835H184.691C185.387 31.8286 186.614 30.2128 188.37 29.0362C190.144 27.843 192.149 27.2464 194.386 27.2464C194.85 27.2464 195.397 27.263 196.027 27.2962C196.673 27.3293 197.178 27.3707 197.543 27.4205V34.5298C197.245 34.447 196.714 34.3558 195.952 34.2564C195.19 34.1404 194.427 34.0824 193.665 34.0824C191.909 34.0824 190.342 34.4553 188.967 35.201C187.608 35.9302 186.531 36.9493 185.735 38.2585C184.94 39.5511 184.542 41.026 184.542 42.6832V66H177.11ZM219.064 66.7706C215.302 66.7706 212.062 65.9669 209.344 64.3594C206.643 62.7353 204.555 60.4567 203.08 57.5234C201.622 54.5736 200.893 51.1184 200.893 47.1577C200.893 43.2467 201.622 39.7997 203.08 36.8168C204.555 33.8338 206.61 31.5054 209.245 29.8317C211.896 28.1579 214.995 27.321 218.542 27.321C220.696 27.321 222.784 27.6773 224.806 28.3899C226.828 29.1025 228.642 30.2211 230.25 31.7457C231.857 33.2704 233.125 35.2507 234.053 37.6868C234.981 40.1063 235.445 43.0478 235.445 46.5114V49.1463H205.094V43.5781H228.162C228.162 41.6226 227.764 39.8909 226.969 38.3828C226.173 36.8582 225.055 35.6567 223.613 34.7784C222.188 33.9001 220.514 33.4609 218.591 33.4609C216.503 33.4609 214.68 33.9747 213.123 35.0021C211.581 36.013 210.388 37.3388 209.543 38.9794C208.715 40.6035 208.3 42.3684 208.3 44.2741V48.6243C208.3 51.1764 208.748 53.3473 209.643 55.1371C210.554 56.9268 211.822 58.294 213.446 59.2386C215.07 60.1667 216.967 60.6307 219.138 60.6307C220.547 60.6307 221.831 60.4318 222.991 60.0341C224.151 59.6198 225.154 59.0066 225.999 58.1946C226.844 57.3826 227.491 56.38 227.938 55.1868L234.973 56.4545C234.409 58.526 233.398 60.3407 231.94 61.8984C230.498 63.4396 228.684 64.6411 226.496 65.5028C224.325 66.348 221.848 66.7706 219.064 66.7706ZM251.124 15.0909V66H243.692V15.0909H251.124ZM277.579 66.7706C273.818 66.7706 270.578 65.9669 267.86 64.3594C265.159 62.7353 263.071 60.4567 261.596 57.5234C260.137 54.5736 259.408 51.1184 259.408 47.1577C259.408 43.2467 260.137 39.7997 261.596 36.8168C263.071 33.8338 265.126 31.5054 267.76 29.8317C270.412 28.1579 273.511 27.321 277.057 27.321C279.212 27.321 281.3 27.6773 283.322 28.3899C285.343 29.1025 287.158 30.2211 288.765 31.7457C290.373 33.2704 291.641 35.2507 292.569 37.6868C293.497 40.1063 293.961 43.0478 293.961 46.5114V49.1463H263.609V43.5781H286.677C286.677 41.6226 286.28 39.8909 285.484 38.3828C284.689 36.8582 283.57 35.6567 282.128 34.7784C280.703 33.9001 279.029 33.4609 277.107 33.4609C275.019 33.4609 273.196 33.9747 271.638 35.0021C270.097 36.013 268.904 37.3388 268.059 38.9794C267.23 40.6035 266.816 42.3684 266.816 44.2741V48.6243C266.816 51.1764 267.263 53.3473 268.158 55.1371C269.07 56.9268 270.337 58.294 271.961 59.2386C273.586 60.1667 275.483 60.6307 277.654 60.6307C279.063 60.6307 280.347 60.4318 281.507 60.0341C282.667 59.6198 283.67 59.0066 284.515 58.1946C285.36 57.3826 286.006 56.38 286.454 55.1868L293.488 56.4545C292.925 58.526 291.914 60.3407 290.456 61.8984C289.014 63.4396 287.199 64.6411 285.012 65.5028C282.841 66.348 280.363 66.7706 277.579 66.7706ZM307.185 27.8182L315.612 42.6832L324.113 27.8182H332.242L320.335 46.9091L332.341 66H324.213L315.612 51.7315L307.036 66H298.883L310.765 46.9091L299.032 27.8182H307.185Z" fill="url(#paint0_linear_1_2)"/>
</g>
<defs>
<linearGradient id="paint0_linear_1_2" x1="343.744" y1="83" x2="5.99999" y2="83" gradientUnits="userSpaceOnUse">
<stop stop-color="#F27121"/>
<stop offset="0.5" stop-color="#E94057"/>
<stop offset="1" stop-color="#8A2387"/>
</linearGradient>
<clipPath id="clip0_1_2">
<rect width="342" height="81" fill="white"/>
</clipPath>
</defs>
</svg>
